<?xml version="1.0" encoding="UTF-8"?>
<svg xmlns="http://www.w3.org/2000/svg" xmlns:xlink="http://www.w3.org/1999/xlink" width="32px" height="px" viewBox="0 0 32 32" version="1.1">
<g id="surface1">
<path style=" stroke:none;fill-rule:nonzero;fill:rgb(70.19608%,70.19608%,70.19608%);fill-opacity:1;" d="M 15.953125 0.257812 L 1.136719 5.46875 L 3.480469 24.878906 L 15.96875 31.742188 L 28.523438 24.785156 L 30.863281 5.378906 Z M 15.953125 0.257812 "/>
<path style=" stroke:none;fill-rule:nonzero;fill:rgb(65.098041%,7.058824%,5.098039%);fill-opacity:1;" d="M 29.382812 6.5 L 15.917969 1.90625 L 15.917969 30.101562 L 27.203125 23.859375 Z M 29.382812 6.5 "/>
<path style=" stroke:none;fill-rule:nonzero;fill:rgb(86.666667%,10.588235%,8.627451%);fill-opacity:1;" d="M 2.800781 6.582031 L 4.808594 23.941406 L 15.917969 30.101562 L 15.917969 1.90625 Z M 2.800781 6.582031 "/>
<path style=" stroke:none;fill-rule:nonzero;fill:rgb(94.901961%,94.901961%,94.901961%);fill-opacity:1;" d="M 19.625 16.917969 L 15.917969 18.652344 L 12.011719 18.652344 L 10.175781 23.246094 L 6.757812 23.308594 L 15.917969 2.929688 Z M 19.265625 16.042969 L 15.941406 9.464844 L 13.214844 15.929688 L 15.917969 15.929688 Z M 19.265625 16.042969 "/>
<path style=" stroke:none;fill-rule:nonzero;fill:rgb(70.19608%,70.19608%,70.19608%);fill-opacity:1;" d="M 15.917969 2.929688 L 15.941406 9.464844 L 19.035156 15.9375 L 15.925781 15.9375 L 15.917969 18.648438 L 20.21875 18.652344 L 22.230469 23.308594 L 25.5 23.367188 Z M 15.917969 2.929688 "/>
</g>
</svg>
