<?xml version="1.0" encoding="UTF-8"?>
<svg xmlns="http://www.w3.org/2000/svg" xmlns:xlink="http://www.w3.org/1999/xlink" width="32px" height="px" viewBox="0 0 32 32" version="1.1">
<g id="surface1">
<path style=" stroke:none;fill-rule:nonzero;fill:rgb(60.784316%,30.980393%,58.823532%);fill-opacity:1;" d="M 28.851562 7.675781 L 16.773438 0.726562 C 16.574219 0.601562 16.300781 0.550781 16 0.550781 C 15.699219 0.550781 15.425781 0.625 15.226562 0.726562 L 3.226562 7.699219 C 2.800781 7.949219 2.5 8.574219 2.5 9.050781 L 2.5 22.976562 C 2.5 23.25 2.550781 23.574219 2.75 23.851562 L 29.449219 8.351562 C 29.300781 8.050781 29.074219 7.824219 28.851562 7.675781 Z M 28.851562 7.675781 "/>
<path style=" stroke:none;fill-rule:nonzero;fill:rgb(40.784314%,12.941177%,47.843137%);fill-opacity:1;" d="M 2.675781 23.824219 C 2.800781 24.023438 2.976562 24.199219 3.148438 24.300781 L 15.199219 31.273438 C 15.398438 31.398438 15.675781 31.449219 15.976562 31.449219 C 16.273438 31.449219 16.550781 31.375 16.75 31.273438 L 28.75 24.300781 C 29.175781 24.050781 29.476562 23.425781 29.476562 22.949219 L 29.476562 9.023438 C 29.476562 8.800781 29.449219 8.550781 29.324219 8.324219 Z M 2.675781 23.824219 "/>
<path style=" stroke:none;fill-rule:nonzero;fill:rgb(100%,100%,100%);fill-opacity:1;" d="M 21.324219 19.023438 C 20.273438 20.875 18.273438 22.125 16 22.125 C 12.625 22.125 9.875 19.375 9.875 16 C 9.875 12.625 12.625 9.875 16 9.875 C 18.273438 9.875 20.273438 11.125 21.324219 13 L 24.574219 11.125 C 22.875 8.148438 19.675781 6.125 16 6.125 C 10.550781 6.125 6.125 10.550781 6.125 16 C 6.125 21.449219 10.550781 25.875 16 25.875 C 19.648438 25.875 22.851562 23.875 24.550781 20.925781 Z M 24.25 16.550781 L 24.476562 15.476562 L 23.425781 15.476562 L 23.425781 14.300781 L 24.699219 14.300781 L 25 12.75 L 26.226562 12.75 L 25.925781 14.273438 L 26.875 14.273438 L 27.175781 12.75 L 28.375 12.75 L 28.074219 14.273438 L 28.675781 14.273438 L 28.675781 15.449219 L 27.851562 15.449219 L 27.625 16.523438 L 28.675781 16.523438 L 28.675781 17.699219 L 27.398438 17.699219 L 27.101562 19.199219 L 25.875 19.199219 L 26.175781 17.699219 L 25.226562 17.699219 L 24.925781 19.199219 L 23.726562 19.199219 L 24.023438 17.699219 L 23.425781 17.699219 L 23.425781 16.523438 L 24.25 16.523438 Z M 25.449219 16.550781 L 26.398438 16.550781 L 26.625 15.476562 L 25.675781 15.476562 Z M 25.449219 16.550781 "/>
</g>
</svg>
