<?xml version="1.0" encoding="UTF-8"?>
<svg xmlns="http://www.w3.org/2000/svg" xmlns:xlink="http://www.w3.org/1999/xlink" width="32px" height="32px" viewBox="0 0 32 32" version="1.1">
<g id="surface1">
<path style=" stroke:none;fill-rule:nonzero;fill:rgb(95.294118%,43.921569%,21.176471%);fill-opacity:1;" d="M 28.277344 6.515625 C 23.042969 -0.265625 13.296875 -1.515625 6.515625 3.722656 C -0.265625 8.960938 -1.515625 18.703125 3.722656 25.484375 C 8.960938 32.265625 18.707031 33.515625 25.484375 28.277344 C 32.265625 23.039062 33.515625 13.296875 28.277344 6.515625 Z M 28.277344 6.515625 "/>
<path style=" stroke:none;fill-rule:nonzero;fill:rgb(100%,100%,100%);fill-opacity:1;" d="M 22.769531 6.039062 C 22.234375 6.082031 21.730469 6.296875 21.324219 6.648438 C 20.34375 7.5 20.175781 8.960938 20.9375 10.015625 C 21.703125 11.066406 23.144531 11.359375 24.257812 10.691406 L 24.296875 10.730469 C 24.476562 10.628906 24.640625 10.507812 24.789062 10.367188 C 25.746094 9.355469 25.730469 7.769531 24.75 6.777344 L 22.539062 8.972656 L 22.5 8.933594 L 24.710938 6.738281 C 24.191406 6.238281 23.488281 5.984375 22.769531 6.042969 Z M 19.859375 9.636719 C 18.796875 9.636719 17.066406 10.835938 12.839844 15.0625 L 12.863281 15.085938 C 12.839844 15.078125 12.816406 15.078125 12.816406 15.078125 L 11.226562 16.652344 C 11.140625 16.734375 11.121094 16.859375 11.175781 16.960938 C 11.230469 17.0625 11.34375 17.117188 11.457031 17.09375 L 14.1875 16.511719 L 14.269531 16.53125 L 13.339844 17.453125 L 13.296875 17.453125 L 7.773438 23.019531 L 9.546875 24.726562 C 9.648438 24.816406 9.796875 24.832031 9.914062 24.761719 C 10.03125 24.695312 10.097656 24.558594 10.074219 24.421875 L 9.816406 23.296875 C 9.785156 23.253906 9.785156 23.191406 9.816406 23.144531 C 12.234375 21.992188 14.484375 20.511719 16.5 18.746094 L 15.367188 17.613281 L 15.390625 17.609375 L 14.714844 16.9375 L 14.757812 16.894531 L 14.804688 16.941406 L 14.78125 16.964844 L 16.566406 18.785156 C 19.984375 15.546875 22.414062 12.945312 21.78125 11.191406 C 21.753906 10.984375 21.65625 10.789062 21.503906 10.640625 C 21.464844 10.613281 21.425781 10.585938 21.382812 10.566406 C 21.363281 10.542969 21.34375 10.519531 21.324219 10.5 L 21.308594 10.515625 C 21.261719 10.488281 21.210938 10.460938 21.160156 10.441406 L 21.234375 10.371094 C 20.785156 9.96875 20.414062 9.640625 19.859375 9.636719 Z M 7.734375 23.050781 L 6.441406 24.34375 L 6.441406 24.347656 C 6.347656 24.40625 6.300781 24.519531 6.328125 24.628906 C 6.355469 24.734375 6.445312 24.816406 6.558594 24.824219 L 9.726562 25.042969 Z M 7.734375 23.050781 "/>
<path style=" stroke:none;fill-rule:nonzero;fill:rgb(95.294118%,43.921569%,21.176471%);fill-opacity:1;" d="M 22.988281 5.828125 C 22.261719 5.828125 21.566406 6.109375 21.046875 6.621094 C 20.296875 7.390625 20.0625 8.527344 20.449219 9.53125 C 19.265625 9.023438 17.660156 9.90625 12.671875 14.894531 C 12.65625 14.921875 12.644531 14.929688 12.632812 14.933594 L 11.058594 16.523438 C 10.902344 16.675781 10.867188 16.914062 10.964844 17.105469 C 11.054688 17.257812 11.21875 17.347656 11.394531 17.351562 L 11.472656 17.300781 L 13.578125 16.851562 L 12.570312 17.867188 C 12.5625 17.882812 12.558594 17.894531 12.558594 17.910156 L 7.621094 22.859375 C 7.597656 22.875 7.582031 22.894531 7.570312 22.917969 L 6.300781 24.191406 C 6.171875 24.328125 6.128906 24.527344 6.195312 24.703125 C 6.265625 24.878906 6.421875 25 6.609375 25.019531 L 9.765625 25.238281 C 9.820312 25.21875 9.863281 25.183594 9.894531 25.132812 C 9.949219 25.058594 9.949219 24.953125 9.894531 24.875 L 9.886719 24.871094 C 9.957031 24.835938 10.015625 24.785156 10.066406 24.726562 C 10.167969 24.589844 10.203125 24.417969 10.164062 24.253906 L 9.921875 23.210938 C 12.28125 22.082031 14.492188 20.664062 16.503906 18.992188 C 16.523438 19.003906 16.542969 19.011719 16.566406 19.019531 C 16.628906 19.015625 16.6875 18.988281 16.734375 18.941406 C 20.121094 15.734375 22.113281 13.535156 22.113281 11.792969 C 22.121094 11.550781 22.082031 11.308594 22.003906 11.078125 C 22.308594 11.207031 22.636719 11.277344 22.964844 11.285156 L 22.960938 11.289062 C 23.417969 11.273438 23.863281 11.148438 24.257812 10.925781 C 24.308594 10.941406 24.367188 10.9375 24.414062 10.910156 C 24.605469 10.800781 24.777344 10.660156 24.929688 10.5 C 25.453125 9.988281 25.746094 9.289062 25.746094 8.558594 C 25.746094 7.828125 25.453125 7.132812 24.929688 6.621094 C 24.921875 6.613281 24.910156 6.605469 24.902344 6.597656 C 24.386719 6.101562 23.699219 5.828125 22.988281 5.828125 Z M 22.964844 6.269531 C 23.472656 6.273438 23.960938 6.441406 24.363281 6.75 L 22.34375 8.777344 C 22.289062 8.839844 22.269531 8.886719 22.265625 8.941406 C 22.265625 9.003906 22.296875 9.0625 22.34375 9.101562 L 23.871094 10.628906 C 23.015625 11 22.019531 10.808594 21.363281 10.148438 C 20.714844 9.5 20.527344 8.523438 20.875 7.675781 C 21.222656 6.828125 22.046875 6.277344 22.964844 6.269531 Z M 24.746094 7.128906 C 25.074219 7.527344 25.253906 8.03125 25.253906 8.546875 C 25.253906 9.152344 25.011719 9.734375 24.582031 10.164062 C 24.496094 10.242188 24.402344 10.320312 24.308594 10.386719 L 23.078125 9.175781 L 22.835938 8.933594 L 22.902344 8.867188 Z M 24.652344 8.175781 C 24.609375 8.164062 24.558594 8.164062 24.515625 8.183594 C 24.472656 8.207031 24.441406 8.246094 24.425781 8.289062 C 24.414062 8.335938 24.417969 8.386719 24.4375 8.429688 C 24.53125 8.621094 24.503906 8.847656 24.375 9.011719 C 24.34375 9.042969 24.324219 9.089844 24.328125 9.132812 C 24.328125 9.179688 24.34375 9.226562 24.375 9.257812 C 24.410156 9.269531 24.445312 9.269531 24.476562 9.257812 C 24.539062 9.273438 24.605469 9.253906 24.648438 9.207031 C 24.863281 8.941406 24.910156 8.574219 24.761719 8.261719 C 24.738281 8.222656 24.699219 8.191406 24.652344 8.175781 Z M 19.835938 9.859375 C 20.136719 9.867188 20.425781 9.976562 20.664062 10.164062 C 20.410156 10.199219 20.171875 10.316406 19.992188 10.5 L 14.289062 16.175781 L 13.171875 15.054688 C 16.128906 12.113281 17.9375 10.574219 19.058594 10.070312 C 19.292969 9.925781 19.5625 9.851562 19.835938 9.855469 Z M 20.828125 10.597656 C 21.019531 10.597656 21.203125 10.671875 21.335938 10.808594 C 21.484375 10.945312 21.5625 11.136719 21.558594 11.339844 C 21.550781 11.539062 21.460938 11.726562 21.308594 11.855469 L 15.246094 17.132812 L 14.59375 16.476562 L 20.316406 10.808594 C 20.453125 10.671875 20.636719 10.597656 20.828125 10.597656 Z M 21.574219 12.273438 C 21.152344 13.949219 18.914062 16.21875 16.578125 18.421875 L 15.632812 17.480469 Z M 12.839844 15.386719 L 12.910156 15.453125 L 13.789062 16.332031 L 11.382812 16.847656 Z M 14.289062 16.847656 L 14.582031 17.148438 L 14.667969 17.234375 L 14.875 17.445312 L 13.527344 17.609375 Z M 15.257812 17.867188 L 16.152344 18.757812 C 14.171875 20.40625 12.003906 21.804688 9.6875 22.921875 C 9.53125 22.996094 9.453125 23.171875 9.492188 23.335938 L 9.753906 24.460938 C 9.722656 24.578125 9.679688 24.578125 9.648438 24.554688 L 8.121094 23.015625 L 12.824219 18.242188 Z M 7.773438 23.351562 L 7.992188 23.554688 L 9.113281 24.675781 L 6.609375 24.515625 Z M 7.773438 23.351562 "/>
</g>
</svg>
