<?xml version="1.0" encoding="UTF-8"?>
<svg xmlns="http://www.w3.org/2000/svg" xmlns:xlink="http://www.w3.org/1999/xlink" width="32px" height="px" viewBox="0 0 32 32" version="1.1">
<g id="surface1">
<path style=" stroke:none;fill-rule:nonzero;fill:rgb(100%,100%,100%);fill-opacity:1;" d="M 5.667969 11.75 L 30.585938 11.75 L 30.585938 30.167969 L 5.667969 30.167969 Z M 5.667969 11.75 "/>
<path style=" stroke:none;fill-rule:nonzero;fill:rgb(0%,47.843137%,80.000001%);fill-opacity:1;" d="M 0.375 15.976562 L 0.375 31.601562 L 31.625 31.601562 L 31.625 0.351562 L 0.375 0.351562 Z M 25.558594 14.726562 C 26.304688 14.902344 26.984375 15.292969 27.511719 15.851562 C 27.800781 16.152344 28.054688 16.488281 28.261719 16.851562 C 28.261719 16.890625 26.914062 17.804688 26.089844 18.316406 C 26.058594 18.335938 25.941406 18.203125 25.808594 18.007812 C 25.503906 17.480469 24.949219 17.148438 24.339844 17.125 C 23.390625 17.058594 22.78125 17.558594 22.789062 18.375 C 22.78125 18.578125 22.828125 18.78125 22.921875 18.960938 C 23.128906 19.390625 23.515625 19.648438 24.734375 20.175781 C 26.96875 21.136719 27.925781 21.773438 28.523438 22.675781 C 29.1875 23.675781 29.335938 25.289062 28.886719 26.484375 C 28.386719 27.785156 27.160156 28.667969 25.425781 28.960938 C 24.636719 29.050781 23.835938 29.042969 23.046875 28.933594 C 21.839844 28.734375 20.722656 28.15625 19.867188 27.277344 C 19.578125 26.960938 19.019531 26.132812 19.054688 26.074219 C 19.144531 26.003906 19.242188 25.945312 19.34375 25.890625 L 20.5 25.25 L 21.398438 24.730469 L 21.585938 25.007812 C 21.902344 25.460938 22.304688 25.847656 22.769531 26.140625 C 23.769531 26.667969 25.136719 26.59375 25.808594 25.988281 C 26.277344 25.527344 26.351562 24.800781 25.984375 24.257812 C 25.734375 23.910156 25.234375 23.617188 23.835938 23.007812 C 22.222656 22.3125 21.527344 21.882812 20.890625 21.199219 C 20.496094 20.746094 20.203125 20.210938 20.035156 19.636719 C 19.910156 18.976562 19.890625 18.300781 19.980469 17.636719 C 20.3125 16.078125 21.480469 14.988281 23.183594 14.667969 C 23.972656 14.570312 24.773438 14.589844 25.558594 14.734375 Z M 18.222656 16.039062 L 18.222656 17.316406 L 14.164062 17.316406 L 14.164062 28.875 L 11.289062 28.875 L 11.289062 17.316406 L 7.21875 17.316406 L 7.21875 16.066406 C 7.207031 15.632812 7.21875 15.203125 7.25 14.773438 C 7.269531 14.75 9.75 14.75 12.75 14.75 L 18.207031 14.75 Z M 18.222656 16.039062 "/>
</g>
</svg>
