<?xml version="1.0" encoding="UTF-8"?>
<svg xmlns="http://www.w3.org/2000/svg" xmlns:xlink="http://www.w3.org/1999/xlink" width="64px" height="px" viewBox="0 0 64 64" version="1.1">
<g id="surface1">
<path style=" stroke:none;fill-rule:nonzero;fill:rgb(70.19608%,70.19608%,70.19608%);fill-opacity:1;" d="M 31.90625 0.511719 L 2.277344 10.941406 L 6.957031 49.757812 L 31.9375 63.488281 L 57.042969 49.574219 L 61.722656 10.753906 Z M 31.90625 0.511719 "/>
<path style=" stroke:none;fill-rule:nonzero;fill:rgb(65.098041%,7.058824%,5.098039%);fill-opacity:1;" d="M 58.769531 13 L 31.835938 3.816406 L 31.835938 60.207031 L 54.40625 47.714844 Z M 58.769531 13 "/>
<path style=" stroke:none;fill-rule:nonzero;fill:rgb(86.666667%,10.588235%,8.627451%);fill-opacity:1;" d="M 5.601562 13.164062 L 9.613281 47.882812 L 31.835938 60.207031 L 31.835938 3.8125 Z M 5.601562 13.164062 "/>
<path style=" stroke:none;fill-rule:nonzero;fill:rgb(94.901961%,94.901961%,94.901961%);fill-opacity:1;" d="M 39.25 33.835938 L 31.835938 37.300781 L 24.023438 37.300781 L 20.347656 46.488281 L 13.515625 46.617188 L 31.835938 5.863281 Z M 38.53125 32.089844 L 31.886719 18.929688 L 26.433594 31.863281 L 31.835938 31.863281 Z M 38.53125 32.089844 "/>
<path style=" stroke:none;fill-rule:nonzero;fill:rgb(70.19608%,70.19608%,70.19608%);fill-opacity:1;" d="M 31.835938 5.863281 L 31.882812 18.929688 L 38.070312 31.871094 L 31.847656 31.871094 L 31.835938 37.292969 L 40.441406 37.300781 L 44.460938 46.617188 L 50.996094 46.738281 Z M 31.835938 5.863281 "/>
</g>
</svg>
