<?xml version="1.0" encoding="UTF-8"?>
<svg xmlns="http://www.w3.org/2000/svg" xmlns:xlink="http://www.w3.org/1999/xlink" width="64px" height="64px" viewBox="0 0 64 64" version="1.1">
<g id="surface1">
<path style=" stroke:none;fill-rule:nonzero;fill:rgb(95.294118%,43.921569%,21.176471%);fill-opacity:1;" d="M 56.558594 13.03125 C 46.085938 -0.53125 26.59375 -3.035156 13.03125 7.441406 C -0.53125 17.917969 -3.03125 37.40625 7.445312 50.96875 C 17.921875 64.53125 37.410156 67.03125 50.972656 56.550781 C 64.53125 46.074219 67.03125 26.59375 56.558594 13.03125 Z M 56.558594 13.03125 "/>
<path style=" stroke:none;fill-rule:nonzero;fill:rgb(100%,100%,100%);fill-opacity:1;" d="M 45.539062 12.082031 C 44.472656 12.167969 43.457031 12.59375 42.648438 13.296875 C 40.683594 15 40.351562 17.921875 41.878906 20.027344 C 43.40625 22.132812 46.285156 22.722656 48.515625 21.386719 L 48.59375 21.464844 C 48.949219 21.261719 49.28125 21.015625 49.578125 20.738281 C 51.492188 18.714844 51.457031 15.535156 49.5 13.554688 L 49.5 13.550781 L 45.078125 17.945312 L 45 17.871094 L 49.421875 13.472656 C 48.386719 12.476562 46.972656 11.96875 45.539062 12.082031 Z M 39.71875 19.277344 C 37.597656 19.273438 34.136719 21.675781 25.683594 30.128906 L 25.726562 30.171875 C 25.679688 30.152344 25.632812 30.152344 25.632812 30.152344 L 22.449219 33.304688 C 22.28125 33.464844 22.242188 33.71875 22.351562 33.921875 C 22.457031 34.128906 22.6875 34.234375 22.914062 34.1875 L 28.371094 33.023438 L 28.539062 33.0625 L 26.679688 34.910156 L 26.589844 34.910156 L 15.546875 46.039062 L 19.089844 49.449219 C 19.292969 49.632812 19.59375 49.664062 19.828125 49.523438 C 20.066406 49.386719 20.195312 49.117188 20.152344 48.847656 L 19.632812 46.597656 C 19.566406 46.503906 19.566406 46.378906 19.632812 46.285156 C 24.46875 43.980469 28.96875 41.023438 33.003906 37.496094 L 30.734375 35.226562 L 30.777344 35.21875 L 29.433594 33.875 L 29.519531 33.789062 L 29.609375 33.882812 L 29.5625 33.925781 L 33.132812 37.574219 L 33.132812 37.570312 C 39.972656 31.09375 44.824219 25.886719 43.5625 22.382812 C 43.507812 21.964844 43.3125 21.578125 43.011719 21.28125 C 42.933594 21.226562 42.851562 21.175781 42.769531 21.128906 C 42.726562 21.085938 42.691406 21.039062 42.648438 20.996094 L 42.613281 21.03125 C 42.519531 20.972656 42.421875 20.925781 42.324219 20.886719 L 42.46875 20.738281 C 41.570312 19.941406 40.828125 19.277344 39.71875 19.273438 Z M 15.46875 46.105469 L 12.882812 48.691406 C 12.695312 48.8125 12.601562 49.039062 12.65625 49.253906 C 12.707031 49.472656 12.894531 49.632812 13.117188 49.648438 L 19.453125 50.085938 Z M 15.46875 46.105469 "/>
<path style=" stroke:none;fill-rule:nonzero;fill:rgb(95.294118%,43.921569%,21.176471%);fill-opacity:1;" d="M 45.976562 11.65625 C 44.523438 11.652344 43.128906 12.222656 42.09375 13.238281 C 40.59375 14.777344 40.125 17.054688 40.902344 19.058594 C 38.53125 18.046875 35.324219 19.816406 25.347656 29.789062 C 25.308594 29.84375 25.289062 29.855469 25.269531 29.867188 L 22.113281 33.050781 C 21.804688 33.355469 21.730469 33.824219 21.933594 34.210938 C 22.113281 34.511719 22.4375 34.699219 22.785156 34.703125 L 22.945312 34.601562 L 27.15625 33.703125 L 25.140625 35.738281 C 25.128906 35.761719 25.121094 35.789062 25.113281 35.820312 L 15.238281 45.71875 C 15.199219 45.753906 15.167969 45.792969 15.140625 45.839844 L 12.597656 48.382812 C 12.339844 48.65625 12.261719 49.050781 12.390625 49.40625 C 12.527344 49.753906 12.847656 50 13.21875 50.035156 L 19.53125 50.476562 C 19.636719 50.4375 19.730469 50.367188 19.789062 50.269531 C 19.902344 50.113281 19.902344 49.90625 19.789062 49.753906 L 19.777344 49.738281 C 19.914062 49.667969 20.03125 49.570312 20.128906 49.449219 C 20.335938 49.183594 20.410156 48.839844 20.332031 48.511719 L 19.839844 46.417969 C 24.558594 44.164062 28.984375 41.332031 33.007812 37.988281 C 33.046875 38.007812 33.085938 38.027344 33.132812 38.039062 C 33.257812 38.03125 33.378906 37.976562 33.46875 37.886719 C 40.242188 31.46875 44.222656 27.074219 44.222656 23.585938 C 44.238281 23.101562 44.167969 22.617188 44.007812 22.160156 C 44.621094 22.414062 45.269531 22.554688 45.929688 22.574219 L 45.925781 22.574219 C 46.832031 22.546875 47.722656 22.300781 48.515625 21.851562 C 48.621094 21.882812 48.730469 21.871094 48.824219 21.824219 C 49.207031 21.597656 49.558594 21.320312 49.859375 20.996094 C 50.902344 19.976562 51.488281 18.578125 51.488281 17.117188 C 51.488281 15.660156 50.902344 14.261719 49.863281 13.238281 C 49.84375 13.222656 49.824219 13.207031 49.800781 13.195312 C 48.773438 12.207031 47.402344 11.65625 45.972656 11.65625 Z M 45.929688 12.539062 C 46.941406 12.546875 47.921875 12.882812 48.722656 13.496094 L 44.691406 17.554688 C 44.578125 17.679688 44.539062 17.777344 44.53125 17.878906 C 44.53125 18.007812 44.589844 18.125 44.691406 18.207031 L 47.742188 21.253906 C 46.03125 22 44.039062 21.621094 42.726562 20.300781 C 41.433594 19 41.058594 17.046875 41.75 15.351562 C 42.441406 13.660156 44.089844 12.550781 45.929688 12.539062 Z M 49.492188 14.257812 C 50.152344 15.054688 50.511719 16.058594 50.507812 17.09375 C 50.507812 18.308594 50.023438 19.46875 49.164062 20.324219 C 48.992188 20.488281 48.808594 20.636719 48.613281 20.773438 L 46.152344 18.351562 L 45.671875 17.867188 L 45.804688 17.734375 Z M 49.308594 16.351562 C 49.21875 16.324219 49.121094 16.332031 49.035156 16.367188 C 48.949219 16.414062 48.882812 16.488281 48.851562 16.582031 C 48.824219 16.675781 48.832031 16.773438 48.878906 16.863281 C 49.058594 17.242188 49.011719 17.691406 48.75 18.027344 C 48.683594 18.089844 48.648438 18.179688 48.652344 18.269531 C 48.65625 18.363281 48.6875 18.449219 48.75 18.515625 C 48.816406 18.539062 48.890625 18.539062 48.957031 18.515625 C 49.078125 18.546875 49.207031 18.507812 49.292969 18.410156 C 49.726562 17.878906 49.816406 17.144531 49.527344 16.523438 L 49.527344 16.527344 C 49.476562 16.445312 49.398438 16.382812 49.308594 16.351562 Z M 39.671875 19.714844 C 40.273438 19.734375 40.855469 19.949219 41.324219 20.328125 C 40.816406 20.402344 40.347656 20.636719 39.984375 20.996094 L 28.582031 32.351562 L 26.34375 30.113281 C 32.257812 24.226562 35.871094 21.152344 38.121094 20.144531 C 38.585938 19.851562 39.121094 19.703125 39.671875 19.714844 Z M 41.652344 21.195312 C 42.035156 21.195312 42.402344 21.347656 42.675781 21.617188 C 42.964844 21.890625 43.125 22.277344 43.113281 22.675781 C 43.101562 23.074219 42.921875 23.449219 42.621094 23.710938 L 30.496094 34.265625 L 29.1875 32.957031 L 40.632812 21.617188 C 40.902344 21.347656 41.269531 21.195312 41.652344 21.195312 Z M 43.148438 24.542969 C 42.304688 27.894531 37.824219 32.433594 33.15625 36.847656 L 31.265625 34.960938 Z M 25.683594 30.773438 L 25.820312 30.910156 L 27.578125 32.664062 L 22.761719 33.695312 Z M 28.578125 33.695312 L 28.582031 33.695312 L 29.164062 34.292969 L 29.214844 34.339844 L 29.339844 34.46875 L 29.746094 34.886719 L 27.054688 35.21875 L 28.582031 33.691406 Z M 30.511719 35.730469 L 32.300781 37.519531 C 28.347656 40.808594 24.003906 43.605469 19.375 45.847656 C 19.066406 45.996094 18.902344 46.339844 18.988281 46.675781 L 19.503906 48.925781 C 19.445312 49.160156 19.355469 49.160156 19.296875 49.105469 L 16.246094 46.03125 L 25.648438 36.488281 L 30.515625 35.730469 Z M 15.546875 46.703125 L 15.980469 47.109375 L 18.226562 49.355469 L 13.21875 49.03125 L 15.546875 46.699219 Z M 15.546875 46.703125 "/>
</g>
</svg>
