<?xml version="1.0" encoding="UTF-8"?>
<svg xmlns="http://www.w3.org/2000/svg" xmlns:xlink="http://www.w3.org/1999/xlink" width="64px" height="px" viewBox="0 0 64 64" version="1.1">
<defs>
<linearGradient id="linear0" gradientUnits="userSpaceOnUse" x1="70.251999" y1="1237.475952" x2="170.658997" y2="1151.088989" gradientTransform="matrix(0.2815,0,0,-0.284,-14.6075,359.038508)">
<stop offset="0" style="stop-color:rgb(35.294118%,62.352941%,83.137255%);stop-opacity:1;"/>
<stop offset="1" style="stop-color:rgb(18.823529%,41.176471%,59.607843%);stop-opacity:1;"/>
</linearGradient>
<linearGradient id="linear1" gradientUnits="userSpaceOnUse" x1="209.473999" y1="1098.811035" x2="173.619995" y2="1149.536987" gradientTransform="matrix(0.2815,0,0,-0.284,-14.6075,359.038508)">
<stop offset="0" style="stop-color:rgb(100%,83.137255%,23.137255%);stop-opacity:1;"/>
<stop offset="1" style="stop-color:rgb(100%,90.980392%,45.098039%);stop-opacity:1;"/>
</linearGradient>
<filter id="alpha" filterUnits="objectBoundingBox" x="0%" y="0%" width="100%" height="100%">
  <feColorMatrix type="matrix" in="SourceGraphic" values="0 0 0 0 1 0 0 0 0 1 0 0 0 0 1 0 0 0 1 0"/>
</filter>
<mask id="mask0">
  <g filter="url(#alpha)">
<rect x="0" y="0" width="64" height="64" style="fill:rgb(0%,0%,0%);fill-opacity:0.443137;stroke:none;"/>
  </g>
</mask>
<radialGradient id="radial0" gradientUnits="userSpaceOnUse" cx="1825.677979" cy="444.450012" fx="1825.677979" fy="444.450012" r="26.743" gradientTransform="matrix(0,-0.12,-0.5275,0,266.489502,278.787994)">
<stop offset="0" style="stop-color:rgb(72.156863%,72.156863%,72.156863%);stop-opacity:0.498039;"/>
<stop offset="1" style="stop-color:rgb(49.803922%,49.803922%,49.803922%);stop-opacity:0;"/>
</radialGradient>
<clipPath id="clip1">
  <rect x="0" y="0" width="64" height="64"/>
</clipPath>
<g id="surface5" clip-path="url(#clip1)">
<path style=" stroke:none;fill-rule:nonzero;fill:url(#radial0);" d="M 48.65625 59.796875 C 48.65625 61.570312 41.246094 63.007812 32.109375 63.007812 C 22.972656 63.007812 15.5625 61.570312 15.5625 59.796875 C 15.5625 58.027344 22.96875 56.589844 32.109375 56.589844 C 41.246094 56.589844 48.65625 58.027344 48.65625 59.796875 Z M 48.65625 59.796875 "/>
</g>
</defs>
<g id="surface1">
<path style=" stroke:none;fill-rule:nonzero;fill:url(#linear0);" d="M 31.695312 6.125 C 29.585938 6.132812 27.570312 6.3125 25.796875 6.628906 C 20.570312 7.550781 19.621094 9.484375 19.621094 13.046875 L 19.621094 17.75 L 31.96875 17.75 L 31.96875 19.320312 L 14.988281 19.320312 C 11.402344 19.320312 8.257812 21.476562 7.277344 25.582031 C 6.140625 30.28125 6.089844 33.21875 7.277344 38.128906 C 8.152344 41.785156 10.25 44.386719 13.835938 44.386719 L 18.082031 44.386719 L 18.082031 38.746094 C 18.082031 34.671875 21.609375 31.078125 25.796875 31.078125 L 38.128906 31.078125 C 41.5625 31.078125 44.300781 28.25 44.300781 24.804688 L 44.300781 13.046875 C 44.300781 9.699219 41.476562 7.1875 38.128906 6.628906 C 36.007812 6.273438 33.804688 6.113281 31.695312 6.125 Z M 25.019531 9.910156 C 26.292969 9.910156 27.335938 10.96875 27.335938 12.269531 C 27.335938 13.566406 26.292969 14.613281 25.019531 14.613281 C 23.738281 14.613281 22.703125 13.566406 22.703125 12.269531 C 22.703125 10.96875 23.738281 9.910156 25.019531 9.910156 Z M 25.019531 9.910156 "/>
<path style=" stroke:none;fill-rule:nonzero;fill:url(#linear1);" d="M 45.839844 19.320312 L 45.839844 24.804688 C 45.839844 29.054688 42.238281 32.628906 38.128906 32.628906 L 25.796875 32.628906 C 22.417969 32.628906 19.621094 35.523438 19.621094 38.90625 L 19.621094 50.664062 C 19.621094 54.007812 22.53125 55.976562 25.796875 56.9375 C 29.703125 58.085938 33.453125 58.292969 38.128906 56.9375 C 41.234375 56.035156 44.300781 54.222656 44.300781 50.664062 L 44.300781 45.957031 L 31.96875 45.957031 L 31.96875 44.386719 L 50.476562 44.386719 C 54.0625 44.386719 55.402344 41.886719 56.648438 38.128906 C 57.9375 34.261719 57.882812 30.539062 56.648438 25.578125 C 55.761719 22.007812 54.070312 19.320312 50.476562 19.320312 Z M 38.90625 49.09375 C 40.183594 49.09375 41.222656 50.140625 41.222656 51.441406 C 41.222656 52.742188 40.183594 53.800781 38.90625 53.800781 C 37.628906 53.800781 36.589844 52.742188 36.589844 51.441406 C 36.589844 50.140625 37.628906 49.09375 38.90625 49.09375 Z M 38.90625 49.09375 "/>
<use xlink:href="#surface5" mask="url(#mask0)"/>
</g>
</svg>
