<?xml version="1.0" encoding="UTF-8"?>
<svg xmlns="http://www.w3.org/2000/svg" xmlns:xlink="http://www.w3.org/1999/xlink" width="64px" height="px" viewBox="0 0 64 64" version="1.1">
<g id="surface1">
<path style=" stroke:none;fill-rule:nonzero;fill:rgb(38.039216%,85.490197%,98.431373%);fill-opacity:1;" d="M 37.699219 32 C 37.699219 28.851562 35.148438 26.300781 32 26.300781 C 28.851562 26.300781 26.300781 28.851562 26.300781 32 C 26.300781 35.148438 28.851562 37.699219 32 37.699219 C 35.148438 37.699219 37.699219 35.148438 37.699219 32 Z M 37.699219 32 "/>
<path style=" stroke:none;fill-rule:nonzero;fill:rgb(38.039216%,85.490197%,98.431373%);fill-opacity:1;" d="M 53.648438 22.601562 C 52.550781 22.199219 51.398438 21.800781 50.199219 21.449219 C 50.5 20.25 50.75 19.050781 50.949219 17.898438 C 52 11.300781 50.851562 6.648438 47.648438 4.851562 C 46.699219 4.300781 45.648438 4.050781 44.449219 4.050781 C 40.949219 4.050781 36.5 6.648438 32 11 C 27.5 6.648438 23.050781 4.050781 19.550781 4.050781 C 18.351562 4.050781 17.300781 4.300781 16.351562 4.851562 C 13.148438 6.699219 12 11.351562 13.050781 17.898438 C 13.25 19.050781 13.5 20.25 13.800781 21.449219 C 12.601562 21.800781 11.449219 22.148438 10.351562 22.601562 C 4.101562 25 0.699219 28.300781 0.699219 32 C 0.699219 35.699219 4.148438 39 10.351562 41.398438 C 11.449219 41.800781 12.601562 42.199219 13.800781 42.550781 C 13.5 43.75 13.25 44.949219 13.050781 46.101562 C 12 52.699219 13.148438 57.351562 16.351562 59.148438 C 17.300781 59.699219 18.351562 59.949219 19.550781 59.949219 C 23.101562 59.949219 27.550781 57.351562 32 53 C 36.5 57.351562 40.949219 59.949219 44.449219 59.949219 C 45.648438 59.949219 46.699219 59.699219 47.648438 59.148438 C 50.851562 57.300781 52 52.648438 50.949219 46.101562 C 50.75 44.949219 50.5 43.75 50.199219 42.550781 C 51.398438 42.199219 52.550781 41.851562 53.648438 41.398438 C 59.898438 39 63.300781 35.699219 63.300781 32 C 63.300781 28.300781 59.898438 25 53.648438 22.601562 Z M 46.25 7.351562 C 48.300781 8.550781 49 12.25 48.148438 17.5 C 48 18.550781 47.75 19.648438 47.449219 20.800781 C 44.851562 20.199219 42.101562 19.800781 39.199219 19.550781 C 37.5 17.148438 35.75 15 34 13.050781 C 37.699219 9.398438 41.449219 6.898438 44.5 6.898438 C 45.148438 6.898438 45.75 7.050781 46.25 7.351562 Z M 40.648438 37 C 39.75 38.601562 38.699219 40.199219 37.601562 41.800781 C 35.75 41.949219 33.898438 42 32 42 C 30.050781 42 28.199219 41.949219 26.398438 41.800781 C 25.300781 40.199219 24.300781 38.601562 23.398438 37 C 22.449219 35.351562 21.550781 33.648438 20.75 32 C 21.550781 30.351562 22.449219 28.648438 23.398438 27 C 24.300781 25.398438 25.351562 23.800781 26.449219 22.199219 C 28.300781 22.050781 30.148438 22 32.050781 22 C 34 22 35.851562 22.050781 37.648438 22.199219 C 38.75 23.800781 39.75 25.398438 40.648438 27 C 41.601562 28.648438 42.5 30.351562 43.300781 32 C 42.449219 33.648438 41.601562 35.300781 40.648438 37 Z M 44.800781 35.351562 C 45.550781 37.101562 46.148438 38.800781 46.699219 40.5 C 45 40.898438 43.199219 41.199219 41.300781 41.449219 C 41.898438 40.5 42.550781 39.5 43.101562 38.449219 C 43.699219 37.398438 44.25 36.351562 44.800781 35.351562 Z M 32 48.898438 C 30.800781 47.601562 29.648438 46.199219 28.550781 44.75 C 29.699219 44.800781 30.851562 44.851562 32 44.851562 C 33.148438 44.851562 34.300781 44.800781 35.449219 44.75 C 34.351562 46.199219 33.199219 47.601562 32 48.898438 Z M 22.699219 41.398438 C 20.800781 41.148438 19 40.851562 17.300781 40.449219 C 17.851562 38.800781 18.449219 37.050781 19.199219 35.300781 C 19.75 36.300781 20.300781 37.351562 20.898438 38.351562 C 21.5 39.449219 22.101562 40.398438 22.699219 41.398438 Z M 19.199219 28.648438 C 18.449219 26.898438 17.851562 25.199219 17.300781 23.5 C 19 23.101562 20.800781 22.800781 22.699219 22.550781 C 22.101562 23.5 21.449219 24.5 20.898438 25.550781 C 20.300781 26.601562 19.75 27.648438 19.199219 28.648438 Z M 32 15.101562 C 33.199219 16.398438 34.351562 17.800781 35.449219 19.25 C 34.300781 19.199219 33.148438 19.148438 32 19.148438 C 30.851562 19.148438 29.699219 19.199219 28.550781 19.25 C 29.648438 17.800781 30.800781 16.398438 32 15.101562 Z M 43.101562 25.601562 L 41.300781 22.601562 C 43.199219 22.851562 45 23.148438 46.699219 23.550781 C 46.148438 25.199219 45.550781 26.949219 44.800781 28.699219 C 44.25 27.648438 43.699219 26.601562 43.101562 25.601562 Z M 15.851562 17.5 C 15 12.25 15.699219 8.550781 17.75 7.351562 C 18.25 7.050781 18.851562 6.898438 19.5 6.898438 C 22.5 6.898438 26.25 9.351562 30 13.050781 C 28.25 14.949219 26.5 17.148438 24.800781 19.550781 C 21.898438 19.800781 19.148438 20.25 16.550781 20.800781 C 16.25 19.648438 16.050781 18.550781 15.851562 17.5 Z M 3.5 32 C 3.5 29.648438 6.351562 27.148438 11.351562 25.300781 C 12.351562 24.898438 13.449219 24.550781 14.550781 24.25 C 15.351562 26.75 16.351562 29.398438 17.550781 32.050781 C 16.351562 34.699219 15.300781 37.300781 14.550781 39.800781 C 7.648438 37.800781 3.5 34.800781 3.5 32 Z M 17.75 56.648438 C 15.699219 55.449219 15 51.75 15.851562 46.5 C 16 45.449219 16.25 44.351562 16.550781 43.199219 C 19.148438 43.800781 21.898438 44.199219 24.800781 44.449219 C 26.5 46.851562 28.25 49 30 50.949219 C 26.300781 54.601562 22.550781 57.101562 19.5 57.101562 C 18.851562 57.101562 18.25 56.949219 17.75 56.648438 Z M 48.148438 46.5 C 49 51.75 48.300781 55.449219 46.25 56.648438 C 45.75 56.949219 45.148438 57.101562 44.5 57.101562 C 41.5 57.101562 37.75 54.648438 34 50.949219 C 35.75 49.050781 37.5 46.851562 39.199219 44.449219 C 42.101562 44.199219 44.851562 43.75 47.449219 43.199219 C 47.75 44.351562 47.949219 45.449219 48.148438 46.5 Z M 52.648438 38.699219 C 51.648438 39.101562 50.550781 39.449219 49.449219 39.75 C 48.648438 37.25 47.648438 34.601562 46.449219 31.949219 C 47.648438 29.300781 48.699219 26.699219 49.449219 24.199219 C 56.351562 26.199219 60.5 29.199219 60.5 32 C 60.5 34.351562 57.601562 36.851562 52.648438 38.699219 Z M 52.648438 38.699219 "/>
</g>
</svg>
