<?xml version="1.0" encoding="UTF-8"?>
<svg xmlns="http://www.w3.org/2000/svg" xmlns:xlink="http://www.w3.org/1999/xlink" width="64px" height="px" viewBox="0 0 64 64" version="1.1">
<g id="surface1">
<path style=" stroke:none;fill-rule:nonzero;fill:rgb(100%,100%,100%);fill-opacity:1;" d="M 11.335938 23.5 L 61.171875 23.5 L 61.171875 60.335938 L 11.335938 60.335938 Z M 11.335938 23.5 "/>
<path style=" stroke:none;fill-rule:nonzero;fill:rgb(0%,47.843137%,80.000001%);fill-opacity:1;" d="M 0.75 31.953125 L 0.75 63.203125 L 63.25 63.203125 L 63.25 0.703125 L 0.75 0.703125 Z M 51.113281 29.453125 C 52.613281 29.800781 53.972656 30.585938 55.023438 31.703125 C 55.605469 32.308594 56.109375 32.980469 56.523438 33.703125 C 56.523438 33.785156 53.824219 35.609375 52.179688 36.628906 C 52.121094 36.671875 51.878906 36.410156 51.613281 36.015625 C 51.003906 34.960938 49.898438 34.296875 48.679688 34.25 C 46.785156 34.121094 45.566406 35.113281 45.574219 36.75 C 45.558594 37.15625 45.652344 37.5625 45.84375 37.921875 C 46.261719 38.785156 47.035156 39.300781 49.464844 40.351562 C 53.941406 42.273438 55.855469 43.546875 57.046875 45.351562 C 58.375 47.351562 58.671875 50.578125 57.769531 52.96875 C 56.769531 55.570312 54.320312 57.335938 50.855469 57.921875 C 49.273438 58.101562 47.671875 58.085938 46.09375 57.871094 C 43.675781 57.472656 41.449219 56.308594 39.734375 54.554688 C 39.160156 53.921875 38.039062 52.265625 38.109375 52.144531 C 38.292969 52.007812 38.484375 51.886719 38.683594 51.78125 L 41 50.5 L 42.796875 49.460938 L 43.171875 50.015625 C 43.804688 50.921875 44.609375 51.691406 45.539062 52.285156 C 47.539062 53.335938 50.269531 53.191406 51.621094 51.976562 C 52.554688 51.054688 52.699219 49.601562 51.964844 48.515625 C 51.464844 47.820312 50.464844 47.234375 47.671875 46.015625 C 44.445312 44.625 43.054688 43.765625 41.785156 42.394531 C 40.992188 41.492188 40.40625 40.425781 40.070312 39.269531 C 39.820312 37.953125 39.78125 36.601562 39.960938 35.269531 C 40.625 32.15625 42.960938 29.980469 46.371094 29.335938 C 47.949219 29.140625 49.550781 29.183594 51.113281 29.464844 Z M 36.445312 32.074219 L 36.445312 34.636719 L 28.328125 34.636719 L 28.328125 57.75 L 22.574219 57.75 L 22.574219 34.628906 L 14.441406 34.628906 L 14.441406 32.128906 C 14.414062 31.269531 14.433594 30.40625 14.5 29.546875 C 14.539062 29.5 19.5 29.5 25.5 29.5 L 36.414062 29.5 Z M 36.445312 32.074219 "/>
</g>
</svg>
