<?xml version="1.0" encoding="UTF-8"?>
<svg xmlns="http://www.w3.org/2000/svg" xmlns:xlink="http://www.w3.org/1999/xlink" width="48px" height="px" viewBox="0 0 48 48" version="1.1">
<g id="surface1">
<path style=" stroke:none;fill-rule:nonzero;fill:rgb(70.19608%,70.19608%,70.19608%);fill-opacity:1;" d="M 23.929688 0.382812 L 1.707031 8.203125 L 5.21875 37.320312 L 23.953125 47.617188 L 42.78125 37.179688 L 46.292969 8.066406 Z M 23.929688 0.382812 "/>
<path style=" stroke:none;fill-rule:nonzero;fill:rgb(65.098041%,7.058824%,5.098039%);fill-opacity:1;" d="M 44.074219 9.75 L 23.878906 2.859375 L 23.878906 45.15625 L 40.804688 35.785156 Z M 44.074219 9.75 "/>
<path style=" stroke:none;fill-rule:nonzero;fill:rgb(86.666667%,10.588235%,8.627451%);fill-opacity:1;" d="M 4.199219 9.875 L 7.210938 35.910156 L 23.875 45.15625 L 23.875 2.859375 Z M 4.199219 9.875 "/>
<path style=" stroke:none;fill-rule:nonzero;fill:rgb(94.901961%,94.901961%,94.901961%);fill-opacity:1;" d="M 29.4375 25.375 L 23.878906 27.976562 L 18.015625 27.976562 L 15.261719 34.867188 L 10.136719 34.960938 L 23.878906 4.398438 Z M 28.898438 24.066406 L 23.914062 14.195312 L 19.824219 23.898438 L 23.875 23.898438 Z M 28.898438 24.066406 "/>
<path style=" stroke:none;fill-rule:nonzero;fill:rgb(70.19608%,70.19608%,70.19608%);fill-opacity:1;" d="M 23.875 4.398438 L 23.914062 14.195312 L 28.554688 23.90625 L 23.886719 23.90625 L 23.875 27.96875 L 30.328125 27.976562 L 33.347656 34.960938 L 38.25 35.054688 Z M 23.875 4.398438 "/>
</g>
</svg>
