<?xml version="1.0" encoding="UTF-8"?>
<svg xmlns="http://www.w3.org/2000/svg" xmlns:xlink="http://www.w3.org/1999/xlink" width="48px" height="px" viewBox="0 0 48 48" version="1.1">
<defs>
<linearGradient id="linear0" gradientUnits="userSpaceOnUse" x1="34.513" y1="15.535" x2="27.157" y2="30.448" gradientTransform="matrix(2.319461,0,0,2.319461,-48.465752,-27.643124)">
<stop offset="0" style="stop-color:rgb(24.705882%,52.941176%,24.705882%);stop-opacity:1;"/>
<stop offset="0.33" style="stop-color:rgb(24.705882%,54.509804%,23.921569%);stop-opacity:1;"/>
<stop offset="0.637" style="stop-color:rgb(24.313725%,58.823529%,21.960784%);stop-opacity:1;"/>
<stop offset="0.934" style="stop-color:rgb(23.921569%,66.27451%,18.039216%);stop-opacity:1;"/>
<stop offset="1" style="stop-color:rgb(23.921569%,68.235294%,16.862745%);stop-opacity:1;"/>
</linearGradient>
<linearGradient id="linear1" gradientUnits="userSpaceOnUse" x1="30.009001" y1="23.358999" x2="50.533001" y2="8.288" gradientTransform="matrix(2.319461,0,0,2.319461,-48.465752,-27.643124)">
<stop offset="0.138" style="stop-color:rgb(24.705882%,52.941176%,24.705882%);stop-opacity:1;"/>
<stop offset="0.402" style="stop-color:rgb(32.156863%,62.745098%,26.666667%);stop-opacity:1;"/>
<stop offset="0.713" style="stop-color:rgb(39.215686%,71.764706%,28.627451%);stop-opacity:1;"/>
<stop offset="0.908" style="stop-color:rgb(41.568627%,74.901961%,29.411765%);stop-opacity:1;"/>
</linearGradient>
<linearGradient id="linear2" gradientUnits="userSpaceOnUse" x1="21.917" y1="22.261" x2="40.555" y2="22.261" gradientTransform="matrix(2.319461,0,0,2.319461,-48.465752,-27.643124)">
<stop offset="0.092" style="stop-color:rgb(41.568627%,74.901961%,29.411765%);stop-opacity:1;"/>
<stop offset="0.287" style="stop-color:rgb(39.215686%,71.764706%,28.627451%);stop-opacity:1;"/>
<stop offset="0.598" style="stop-color:rgb(32.156863%,62.745098%,26.666667%);stop-opacity:1;"/>
<stop offset="0.862" style="stop-color:rgb(24.705882%,52.941176%,24.705882%);stop-opacity:1;"/>
</linearGradient>
</defs>
<g id="surface1">
<path style=" stroke:none;fill-rule:nonzero;fill:url(#linear0);" d="M 25.109375 0.308594 C 24.410156 -0.09375 23.546875 -0.09375 22.847656 0.308594 L 4.164062 11.160156 C 3.453125 11.5625 3.054688 12.320312 3.054688 13.125 L 3.054688 34.871094 C 3.054688 35.675781 3.496094 36.433594 4.164062 36.835938 L 22.84375 47.6875 C 23.546875 48.085938 24.40625 48.085938 25.109375 47.6875 L 43.792969 36.835938 C 44.5 36.433594 44.902344 35.675781 44.902344 34.871094 L 44.902344 13.125 C 44.902344 12.320312 44.457031 11.5625 43.792969 11.160156 Z M 25.109375 0.308594 "/>
<path style=" stroke:none;fill-rule:nonzero;fill:url(#linear1);" d="M 43.835938 11.160156 L 25.066406 0.308594 C 24.882812 0.214844 24.6875 0.140625 24.488281 0.0859375 L 3.453125 36.300781 C 3.628906 36.511719 3.839844 36.695312 4.074219 36.835938 L 22.847656 47.6875 C 23.378906 48 24 48.085938 24.578125 47.910156 L 44.324219 11.5625 C 44.195312 11.390625 44.027344 11.253906 43.835938 11.160156 Z M 43.835938 11.160156 "/>
<path style=" stroke:none;fill-rule:nonzero;fill:url(#linear2);" d="M 43.835938 36.835938 C 44.371094 36.523438 44.769531 35.984375 44.945312 35.40625 L 24.398438 0.0390625 C 23.867188 -0.046875 23.289062 -0.00390625 22.800781 0.308594 L 4.164062 11.113281 L 24.265625 47.996094 C 24.53125 47.953125 24.84375 47.863281 25.109375 47.730469 Z M 43.835938 36.835938 "/>
</g>
</svg>
