<?xml version="1.0" encoding="UTF-8"?>
<svg xmlns="http://www.w3.org/2000/svg" xmlns:xlink="http://www.w3.org/1999/xlink" width="48px" height="px" viewBox="0 0 48 48" version="1.1">
<g id="surface1">
<path style=" stroke:none;fill-rule:nonzero;fill:rgb(100%,100%,100%);fill-opacity:1;" d="M 8.5 17.625 L 45.878906 17.625 L 45.878906 45.25 L 8.5 45.25 Z M 8.5 17.625 "/>
<path style=" stroke:none;fill-rule:nonzero;fill:rgb(0%,47.843137%,80.000001%);fill-opacity:1;" d="M 0.5625 23.964844 L 0.5625 47.402344 L 47.4375 47.402344 L 47.4375 0.527344 L 0.5625 0.527344 Z M 38.335938 22.089844 C 39.457031 22.351562 40.480469 22.9375 41.269531 23.777344 C 41.703125 24.230469 42.082031 24.734375 42.394531 25.277344 C 42.394531 25.339844 40.367188 26.707031 39.136719 27.472656 C 39.089844 27.503906 38.910156 27.308594 38.710938 27.011719 C 38.253906 26.222656 37.421875 25.722656 36.511719 25.6875 C 35.089844 25.589844 34.171875 26.335938 34.179688 27.5625 C 34.167969 27.867188 34.238281 28.171875 34.382812 28.441406 C 34.695312 29.089844 35.277344 29.476562 37.097656 30.261719 C 40.453125 31.707031 41.890625 32.660156 42.785156 34.011719 C 43.78125 35.511719 44.003906 37.933594 43.328125 39.726562 C 42.578125 41.675781 40.738281 43 38.140625 43.441406 C 36.953125 43.574219 35.753906 43.5625 34.570312 43.402344 C 32.757812 43.101562 31.085938 42.230469 29.800781 40.917969 C 29.371094 40.441406 28.53125 39.199219 28.582031 39.109375 C 28.71875 39.007812 28.863281 38.914062 29.015625 38.835938 L 30.75 37.875 L 32.097656 37.09375 L 32.378906 37.511719 C 32.851562 38.191406 33.457031 38.769531 34.15625 39.214844 C 35.65625 40 37.703125 39.890625 38.714844 38.980469 C 39.417969 38.292969 39.523438 37.199219 38.972656 36.386719 C 38.597656 35.863281 37.847656 35.425781 35.753906 34.511719 C 33.332031 33.46875 32.292969 32.824219 31.339844 31.796875 C 30.742188 31.117188 30.304688 30.316406 30.050781 29.453125 C 29.863281 28.464844 29.835938 27.449219 29.96875 26.453125 C 30.46875 24.117188 32.21875 22.484375 34.777344 22 C 35.960938 21.855469 37.160156 21.886719 38.335938 22.097656 Z M 27.332031 24.054688 L 27.332031 25.976562 L 21.246094 25.976562 L 21.246094 43.3125 L 16.929688 43.3125 L 16.929688 25.972656 L 10.828125 25.972656 L 10.828125 24.097656 C 10.8125 23.449219 10.824219 22.804688 10.875 22.160156 C 10.90625 22.125 14.625 22.125 19.125 22.125 L 27.3125 22.125 Z M 27.332031 24.054688 "/>
</g>
</svg>
